<?xml version="1.0" standalone="no"?>
<!DOCTYPE svg PUBLIC "-//W3C//DTD SVG 20010904//EN"
 "http://www.w3.org/TR/2001/REC-SVG-20010904/DTD/svg10.dtd">
<svg version="1.0" xmlns="http://www.w3.org/2000/svg"
 width="112.000000pt" height="112.000000pt" viewBox="0 0 112.000000 112.000000"
 preserveAspectRatio="xMidYMid meet">
<metadata>
Created by potrace 1.14, written by Peter Selinger 2001-2017
</metadata>
<g transform="translate(0.000000,112.000000) scale(0.100000,-0.100000)"
fill="#000000" stroke="none">
<path d="M494 1055 c-22 -34 -11 -45 51 -45 80 0 89 6 64 41 -28 39 -90 42
-115 4z"/>
<path d="M366 1025 c-9 -9 -16 -20 -16 -25 0 -18 21 -21 36 -6 8 9 26 16 39
16 13 0 27 5 30 10 3 6 -2 10 -12 10 -10 0 -27 3 -39 6 -13 3 -28 -1 -38 -11z"/>
<path d="M667 1033 c-33 -5 -26 -23 9 -23 14 0 34 -5 44 -10 13 -7 21 -7 26 1
13 22 -29 39 -79 32z"/>
<path d="M215 908 c-10 -6 -34 -26 -52 -45 -32 -31 -34 -37 -36 -111 -2 -67 2
-84 26 -132 36 -72 85 -100 172 -100 77 0 127 14 165 46 26 22 30 33 30 74 0
34 4 50 16 54 28 11 46 -10 68 -75 20 -60 24 -65 66 -81 57 -21 153 -23 211
-3 33 12 51 27 71 59 16 24 28 48 28 53 0 6 9 20 20 33 13 15 20 37 20 62 0
35 -7 46 -65 104 l-64 64 -120 0 c-118 0 -121 -1 -137 -25 -14 -22 -23 -25
-78 -25 -66 0 -79 5 -89 33 -6 17 -17 19 -110 16 -56 -2 -107 -1 -112 3 -6 3
-19 2 -30 -4z"/>
<path d="M42 651 c-4 -11 -6 -54 -4 -96 3 -71 5 -77 29 -86 24 -9 25 -13 20
-59 -5 -38 -2 -53 9 -63 9 -6 24 -20 35 -29 25 -24 24 -4 -2 31 -15 21 -22 47
-24 88 -1 32 -6 78 -9 103 -4 25 -3 56 2 71 12 31 -1 59 -29 59 -11 0 -23 -9
-27 -19z"/>
<path d="M1023 603 c5 -53 3 -74 -8 -89 -31 -42 -6 -114 30 -84 13 11 15 34
13 124 -3 100 -5 111 -22 114 -18 4 -19 -1 -13 -65z"/>
<path d="M291 436 c-19 -23 7 -96 47 -131 19 -16 45 -40 59 -52 15 -14 39 -23
58 -23 17 0 40 -7 51 -15 24 -18 64 -18 88 0 11 8 35 15 54 15 50 0 175 103
188 156 9 35 -20 64 -64 64 -28 0 -42 -8 -78 -47 l-43 -48 -96 1 -96 0 -43 47
c-35 39 -49 47 -78 47 -20 0 -41 -6 -47 -14z"/>
<path d="M885 220 c-30 -32 -30 -32 -5 -25 33 10 43 19 38 40 -2 13 -9 10 -33
-15z"/>
<path d="M220 192 c0 -24 19 -42 46 -42 33 0 37 15 9 28 -14 7 -25 16 -25 22
0 5 -7 10 -15 10 -8 0 -15 -8 -15 -18z"/>
<path d="M402 93 l3 -28 145 0 c133 0 145 1 148 19 6 31 -15 42 -39 20 -30
-27 -187 -28 -216 -1 -29 25 -45 21 -41 -10z"/>
</g>
</svg>
